<?xml version="1.0" encoding="UTF-8" standalone="no"?>
<!-- Created with Inkscape (http://www.inkscape.org/) -->

<svg
   width="79.375mm"
   height="79.375mm"
   viewBox="0 0 79.375 79.375"
   version="1.1"
   id="svg1"
   xml:space="preserve"
   inkscape:version="1.3.2 (091e20ef0f, 2023-11-25, custom)"
   sodipodi:docname="bait-anglerfish.svg"
   inkscape:export-filename="../Documents/Software/bait-lang/artwork/logo/bait-logo.svg"
   inkscape:export-xdpi="96"
   inkscape:export-ydpi="96"
   xmlns:inkscape="http://www.inkscape.org/namespaces/inkscape"
   xmlns:sodipodi="http://sodipodi.sourceforge.net/DTD/sodipodi-0.dtd"
   xmlns:xlink="http://www.w3.org/1999/xlink"
   xmlns="http://www.w3.org/2000/svg"
   xmlns:svg="http://www.w3.org/2000/svg"><sodipodi:namedview
     id="namedview1"
     pagecolor="#ffffff"
     bordercolor="#000000"
     borderopacity="0.25"
     inkscape:showpageshadow="2"
     inkscape:pageopacity="0.0"
     inkscape:pagecheckerboard="0"
     inkscape:deskcolor="#d1d1d1"
     inkscape:document-units="mm"
     inkscape:zoom="1.4142136"
     inkscape:cx="252.79067"
     inkscape:cy="394.56557"
     inkscape:window-width="1876"
     inkscape:window-height="1052"
     inkscape:window-x="0"
     inkscape:window-y="0"
     inkscape:window-maximized="1"
     inkscape:current-layer="layer2" /><defs
     id="defs1"><linearGradient
       id="linearGradient6"
       inkscape:collect="always"><stop
         style="stop-color:#a33e29;stop-opacity:1;"
         offset="0"
         id="stop5" /><stop
         style="stop-color:#dd553b;stop-opacity:1;"
         offset="1"
         id="stop6" /></linearGradient><linearGradient
       id="linearGradient310"
       inkscape:collect="always"><stop
         style="stop-color:#e8ff17;stop-opacity:1;"
         offset="0.65009558"
         id="stop310" /><stop
         style="stop-color:#ffffff;stop-opacity:0;"
         offset="1"
         id="stop311" /></linearGradient><linearGradient
       id="linearGradient308"
       inkscape:collect="always"><stop
         style="stop-color:#437dc7;stop-opacity:1;"
         offset="0.22179732"
         id="stop308" /><stop
         style="stop-color:#70a4db;stop-opacity:1;"
         offset="1"
         id="stop309" /></linearGradient><linearGradient
       id="linearGradient306"
       inkscape:collect="always"><stop
         style="stop-color:#336099;stop-opacity:1;"
         offset="0"
         id="stop306" /><stop
         style="stop-color:#4783d1;stop-opacity:1;"
         offset="1"
         id="stop307" /></linearGradient><linearGradient
       inkscape:collect="always"
       xlink:href="#linearGradient306"
       id="linearGradient307"
       x1="71.4375"
       y1="126.65997"
       x2="133.95358"
       y2="126.65997"
       gradientUnits="userSpaceOnUse" /><linearGradient
       inkscape:collect="always"
       xlink:href="#linearGradient308"
       id="linearGradient309"
       x1="117.78558"
       y1="115.13135"
       x2="146.48621"
       y2="115.13135"
       gradientUnits="userSpaceOnUse" /><radialGradient
       inkscape:collect="always"
       xlink:href="#linearGradient310"
       id="radialGradient311"
       cx="146.125"
       cy="125.5906"
       fx="146.125"
       fy="125.5906"
       r="2.378289"
       gradientTransform="matrix(1.4273081,0,0,1.4115652,-62.622297,-52.862175)"
       gradientUnits="userSpaceOnUse" /><linearGradient
       inkscape:collect="always"
       xlink:href="#linearGradient6"
       id="linearGradient5"
       gradientUnits="userSpaceOnUse"
       x1="71.4375"
       y1="126.65997"
       x2="133.95358"
       y2="126.65997"
       gradientTransform="translate(-1.683798,-52.384826)" /></defs><g
     inkscape:groupmode="layer"
     id="layer2"
     inkscape:label="art"
     style="display:inline"
     transform="translate(-71.437502,-84.666669)"><path
       id="path66"
       style="opacity:1;fill:url(#linearGradient309);fill-opacity:1;stroke:none;stroke-width:0.185;stroke-dasharray:none;stroke-opacity:1"
       d="m 123.63913,107.65657 a 20.307362,18.03204 69.994451 0 0 -5.85355,3.77055 1.7026222,3.4052444 69.994451 0 1 1.43208,0.38823 20.308037,17.769583 69.994451 0 1 4.99922,-3.02506 20.308037,17.769583 69.994451 0 1 3.33297,-0.81035 20.308037,17.769583 69.994451 0 1 1.83369,-0.13251 15.571255,10.029993 69.994451 0 1 0.50651,-0.28998 15.571255,10.029993 69.994451 0 0 -0.50651,0.28998 20.308037,17.769583 69.994451 0 1 7.61899,1.7054 20.689876,10.208227 69.994451 0 1 3.77492,3.12697 15.581022,5.7624807 69.994451 0 0 -0.31926,-0.46451 15.293469,10.030818 69.994451 0 1 3.2395,5.92204 15.293469,10.030818 69.994451 0 1 1.25065,5.43352 2.3859816,2.3859816 0 0 1 0.35281,-0.2137 2.3859816,2.3859816 0 0 1 1.18505,-0.0773 15.571255,10.029993 69.994451 0 0 -1.19655,-4.81967 15.571255,10.029993 69.994451 0 0 -2.11765,-4.36332 20.308037,17.769583 69.994451 0 0 -0.83278,-0.84179 20.308037,17.769583 69.994451 0 1 0.83278,0.84179 15.571255,10.029993 69.994451 0 0 -2.23216,-2.97096 20.307362,18.03204 69.994451 0 0 -0.20633,-0.1619 18.061141,14.098435 69.994451 0 0 -10.79889,-4.24333 20.307362,18.03204 69.994451 0 0 -6.29549,0.93589 z m 5.98673,-0.63595 a 15.293469,10.030818 69.994451 0 1 0.11396,-0.0299 15.293469,10.030818 69.994451 0 0 -0.11396,0.0299 z m 0.69968,-0.14309 a 15.293469,10.030818 69.994451 0 1 0.10703,-0.0142 15.293469,10.030818 69.994451 0 0 -0.10703,0.0142 z m 0.21235,0.38244 a 15.571255,10.029993 69.994451 0 1 0.58549,-0.17581 15.571255,10.029993 69.994451 0 0 -0.58549,0.17581 z m 0,0 a 15.571255,10.029993 69.994451 0 0 -0.52757,0.23667 15.571255,10.029993 69.994451 0 1 0.52757,-0.23667 z m 0.72938,-0.21107 a 15.571255,10.029993 69.994451 0 1 0.1738,-0.0407 17.738937,14.099595 69.994451 0 1 0.0176,0.005 15.571255,10.029993 69.994451 0 0 -0.19141,0.0362 z m 8.28942,3.95919 a 20.308037,17.769583 69.994451 0 1 0.66349,0.46291 20.308037,17.769583 69.994451 0 0 -0.65925,-0.4573 15.581022,5.7624807 69.994451 0 0 -0.004,-0.006 z m 0.96853,0.69503 a 20.308037,17.769583 69.994451 0 1 0.62562,0.49485 20.308037,17.769583 69.994451 0 0 -0.62562,-0.49485 z m 0.93571,0.75592 a 20.308037,17.769583 69.994451 0 1 0.62193,0.55724 20.308037,17.769583 69.994451 0 0 -0.62193,-0.55724 z"
       inkscape:label="lace" /><path
       id="path72"
       style="display:inline;opacity:1;fill:url(#radialGradient311);stroke:none;stroke-width:0.264052;stroke-dasharray:none;stroke-opacity:1"
       d="m 144.76721,121.22931 a 3.4055309,3.4055309 0 0 0 -0.50356,0.30501 3.4055309,3.4055309 0 0 0 -1.53133,4.05996 3.4055309,3.4055309 0 0 0 1.50159,1.7312 3.4055309,3.4055309 0 0 0 2.37729,0.37862 22.224978,14.31589 69.994451 0 0 0.0776,-0.98749 22.224978,14.31589 69.994451 0 1 -0.0776,0.98749 3.4055309,3.4055309 0 0 0 0.4861,-0.0749 3.4055309,3.4055309 0 0 0 2.03489,-4.36497 3.4055309,3.4055309 0 0 0 -2.67354,-2.14521 22.224978,14.31589 69.994451 0 1 0.12575,1.06102 22.224978,14.31589 69.994451 0 0 -0.12575,-1.06102 3.4055309,3.4055309 0 0 0 -1.69142,0.11027 z m -0.42632,1.23293 a 21.828492,14.317068 69.994451 0 1 0.0161,0.28773 21.828492,14.317068 69.994451 0 0 -0.0161,-0.28773 z m 2.2742,0.0652 a 22.224978,14.31589 69.994451 0 1 0.0548,0.681 22.224978,14.31589 69.994451 0 0 -0.0548,-0.681 z m -2.22681,0.87984 a 21.828492,14.317068 69.994451 0 1 0.007,0.30173 21.828492,14.317068 69.994451 0 0 -0.007,-0.30173 z m 0.016,0.92123 a 21.828492,14.317068 69.994451 0 1 -0.001,0.3169 21.828492,14.317068 69.994451 0 0 0.001,-0.3169 z m 2.29018,-0.68859 a 22.224978,14.31589 69.994451 0 1 0.0279,0.64768 22.224978,14.31589 69.994451 0 0 -0.0279,-0.64768 z m -2.30469,1.58872 a 21.828492,14.317068 69.994451 0 1 -0.0143,0.35737 21.828492,14.317068 69.994451 0 0 0.0143,-0.35737 z m 2.34126,-0.5612 a 22.224978,14.31589 69.994451 0 1 0.002,0.6444 22.224978,14.31589 69.994451 0 0 -0.002,-0.6444 z m -2.38674,1.43883 a 21.828492,14.317068 69.994451 0 1 -0.0252,0.37029 21.828492,14.317068 69.994451 0 0 0.0252,-0.37029 z m 2.38469,-0.38155 a 22.224978,14.31589 69.994451 0 1 -0.0247,0.65657 22.224978,14.31589 69.994451 0 0 0.0247,-0.65657 z"
       inkscape:label="bulb" /><path
       style="opacity:1;fill:#ffffff;fill-opacity:1;stroke:#1f3d7a;stroke-width:0.891;stroke-dasharray:none;stroke-opacity:1"
       d="m 116.80797,114.30997 a 1.901318,1.901318 0 0 0 -1.90127,1.90127 1.901318,1.901318 0 0 0 1.90127,1.9013 1.901318,1.901318 0 0 0 1.9013,-1.9013 1.901318,1.901318 0 0 0 -1.9013,-1.90127 z"
       id="rect72"
       inkscape:label="eye" /><path
       id="path204"
       style="display:inline;opacity:1;fill:url(#linearGradient307);fill-opacity:1;stroke:none;stroke-width:0.0878154"
       inkscape:label="fish"
       d="m 99.982011,102.26663 c -2.102617,0.0126 -4.188281,0.32754 -6.170683,0.93276 3.005947,1.76015 4.377972,4.80664 5.581055,7.99331 a 35.036175,23.529369 0 0 0 -7.698238,6.1128 2.9700325,5.9400649 75.966767 0 1 -2.480986,0.93948 2.9700325,5.9400649 75.966767 0 1 -3.523816,0.26768 11.926874,3.7452889 32.480237 0 0 -0.277502,-0.3023 11.926874,3.7452889 32.480237 0 0 -5.73195,-4.51756 11.926874,3.7452889 32.480237 0 0 -0.08268,-0.0491 11.926874,3.7452889 32.480237 0 0 -2.487704,-1.41387 11.926874,3.7452889 32.480237 0 0 -2.195215,-1.04541 4.9038288,5.2747519 0 0 0 -0.824755,-0.0786 v 5.2e-4 a 4.9038288,5.2747519 0 0 0 -1.502234,0.28318 9.8487557,18.375836 4.8446975 0 1 1.962671,7.87032 9.8487557,18.375836 4.8446975 0 1 0.128674,2.35283 9.8487557,18.375836 4.8446975 0 1 0.01188,1.62626 9.8487557,18.375836 4.8446975 0 1 -0.745174,6.08283 9.8487557,18.375836 4.8446975 0 1 -0.08423,0.38913 9.8487557,18.375836 4.8446975 0 1 -2.423625,6.643 4.0580104,3.7480233 0 0 0 2.045353,0.76998 3.7832204,11.807293 73.859533 0 0 2.872176,-0.65991 3.7832204,11.807293 73.859533 0 0 0.36897,-0.0946 3.7832204,11.807293 73.859533 0 0 8.358146,-3.80131 5.783956,2.1884996 27.281529 0 1 2.841687,1.36167 5.783956,2.1884996 27.281529 0 1 0.08113,0.0522 31.924778,31.841021 0 0 0 1.293461,2.27532 31.924778,31.841021 0 0 0 11.345048,10.68875 18.813616,11.095227 0 0 0 14.49627,4.10724 18.813616,11.095227 0 0 0 0.90744,-0.0181 18.813616,11.095227 0 0 0 3.85868,-0.34882 18.813616,11.095227 0 0 0 14.04772,-10.72854 18.813616,11.095227 0 0 0 -0.88522,-3.18276 18.813616,11.095227 0 0 0 -0.005,-0.009 6.4729948,12.602122 0 0 1 -10e-4,0.0155 13.052535,7.7333279 0 0 1 -1.03766,1.00563 8.1472341,6.4813063 88.085044 0 0 -1.93735,-3.38636 8.1472341,6.4813063 88.085044 0 0 -0.35502,-0.32143 8.1472341,6.4813063 88.085044 0 0 -0.40514,-0.35863 v 5.1e-4 a 1.4708945,4.053477 4.6501948 0 1 0.19224,0.41962 1.4708945,4.053477 4.6501948 0 1 0.2005,0.74414 1.4708945,4.053477 4.6501948 0 1 0.0899,2.59415 1.4708945,4.053477 4.6501948 0 1 -0.36639,1.92185 13.052535,7.7333279 0 0 1 -1.23558,0.55035 7.2034916,6.4793543 85.825203 0 0 -2.13424,-3.68504 7.2034916,6.4793543 85.825203 0 0 -0.35553,-0.28474 7.2034916,6.4793543 85.825203 0 0 -0.40463,-0.31678 v 5.2e-4 a 1.4694838,3.5862989 5.4889667 0 1 0.19172,0.37052 1.4694838,3.5862989 5.4889667 0 1 0.20051,0.65836 1.4694838,3.5862989 5.4889667 0 1 0.0904,2.29288 1.4694838,3.5862989 5.4889667 0 1 -0.36897,1.70687 13.052535,7.7333279 0 0 1 -1.68,0.28371 7.2348706,6.4794984 85.990653 0 0 -2.13837,-3.71657 7.2348706,6.4794984 85.990653 0 0 -0.35554,-0.28577 7.2348706,6.4794984 85.990653 0 0 -0.40462,-0.31833 v 5.2e-4 a 1.4695422,3.6018581 5.455664 0 1 0.19172,0.37259 1.4695422,3.6018581 5.455664 0 1 0.2005,0.66042 1.4695422,3.6018581 5.455664 0 1 0.0904,2.30322 1.4695422,3.6018581 5.455664 0 1 -0.19276,1.10277 13.052535,7.7333279 0 0 1 -0.32866,-0.0222 13.052535,7.7333279 0 0 1 -7.05125,-1.449 19.762335,21.819971 0 0 1 0.16847,-2.12494 19.762335,21.819971 0 0 1 2.95382,-8.53746 19.762335,21.819971 0 0 1 2.26808,-3.17138 19.762335,21.819971 0 0 1 0.50384,-0.50385 3.2356834,1.5781886 45.605377 0 1 0.56276,0.46147 3.2356834,1.5781886 45.605377 0 1 1.27279,1.68052 3.2356834,1.5781886 45.605377 0 1 0.23926,0.62012 3.2356834,1.5781886 45.605377 0 1 0.077,0.41134 l 5.2e-4,5.2e-4 a 6.2084234,7.2846229 11.409732 0 0 0.108,-0.54209 6.2084234,7.2846229 11.409732 0 0 0.0915,-0.47956 6.2084234,7.2846229 11.409732 0 0 -0.48163,-3.96668 19.762335,21.819971 0 0 1 1.3162,-0.96893 3.4952992,1.6747314 51.852814 0 1 1.24592,1.02887 3.4952992,1.6747314 51.852814 0 1 1.27279,1.9265 3.4952992,1.6747314 51.852814 0 1 0.23926,0.71055 3.4952992,1.6747314 51.852814 0 1 0.077,0.47181 l 5.2e-4,5.2e-4 a 6.2263932,8.3263843 6.0976268 0 0 0.108,-0.62115 6.2263932,8.3263843 6.0976268 0 0 0.0915,-0.54984 6.2263932,8.3263843 6.0976268 0 0 -0.44545,-4.50825 19.762335,21.819971 0 0 1 1.67587,-0.73536 3.6218116,1.7087097 54.278619 0 1 1.33583,1.14877 3.6218116,1.7087097 54.278619 0 1 1.27331,2.03657 3.6218116,1.7087097 54.278619 0 1 0.23874,0.75137 3.6218116,1.7087097 54.278619 0 1 0.0775,0.4992 6.2296626,8.7981855 5.0922988 0 0 0.10852,-0.6563 6.2296626,8.7981855 5.0922988 0 0 0.091,-0.58187 6.2296626,8.7981855 5.0922988 0 0 -0.23771,-4.01733 19.762335,21.819971 0 0 1 2.06189,-0.33228 19.407991,15.380279 0 0 0 -19.01538,-12.31242 l 5.2e-4,5.1e-4 a 19.407991,15.380279 0 0 0 -0.0284,0.002 c -3.49359,-2.87186 -8.15164,-4.49873 -13.028152,-4.49998 z M 116.7846,114.0995 a 2.1585665,2.1585665 0 0 1 2.15853,2.15852 2.1585665,2.1585665 0 0 1 -2.15853,2.15852 2.1585665,2.1585665 0 0 1 -2.15852,-2.15852 2.1585665,2.1585665 0 0 1 2.15852,-2.15852 z m -34.011875,13.72371 a 3.7832204,11.807293 73.859533 0 1 0.0708,0.002 3.7832204,11.807293 73.859533 0 0 -0.236161,0 3.7832204,11.807293 73.859533 0 1 0.165364,-0.002 z" /></g><g
     inkscape:groupmode="layer"
     id="g4"
     inkscape:label="art copy"
     style="display:none"
     transform="translate(-71.437502,-84.666669)"><path
       id="path4"
       style="display:inline;opacity:1;fill:url(#linearGradient5);fill-opacity:1;stroke:none;stroke-width:0.0878154"
       inkscape:label="fish"
       d="m 98.298213,49.881804 c -2.102617,0.0126 -4.188281,0.32754 -6.170683,0.93276 3.005947,1.76015 4.377972,4.80664 5.581055,7.99331 a 35.036175,23.529369 0 0 0 -7.698238,6.1128 2.9700325,5.9400649 75.966767 0 1 -2.480986,0.93948 2.9700325,5.9400649 75.966767 0 1 -3.523816,0.26768 11.926874,3.7452889 32.480237 0 0 -0.277502,-0.3023 11.926874,3.7452889 32.480237 0 0 -5.73195,-4.51756 11.926874,3.7452889 32.480237 0 0 -0.08268,-0.04909 11.926874,3.7452889 32.480237 0 0 -2.487704,-1.41387 11.926874,3.7452889 32.480237 0 0 -2.195215,-1.04541 4.9038288,5.2747519 0 0 0 -0.824755,-0.07855 v 5.2e-4 a 4.9038288,5.2747519 0 0 0 -1.502234,0.28318 9.8487557,18.375836 4.8446975 0 1 1.962671,7.87032 9.8487557,18.375836 4.8446975 0 1 0.128674,2.35283 9.8487557,18.375836 4.8446975 0 1 0.01188,1.62626 9.8487557,18.375836 4.8446975 0 1 -0.745174,6.08283 9.8487557,18.375836 4.8446975 0 1 -0.08423,0.38913 9.8487557,18.375836 4.8446975 0 1 -2.423625,6.643 4.0580104,3.7480233 0 0 0 2.045353,0.76998 3.7832204,11.807293 73.859533 0 0 2.872176,-0.65991 3.7832204,11.807293 73.859533 0 0 0.36897,-0.09457 3.7832204,11.807293 73.859533 0 0 8.358146,-3.80131 5.783956,2.1884996 27.281529 0 1 2.841687,1.36167 5.783956,2.1884996 27.281529 0 1 0.08113,0.05219 31.924778,31.841021 0 0 0 1.293461,2.27532 31.924778,31.841021 0 0 0 11.345045,10.68875 18.813616,11.095227 0 0 0 14.496271,4.10724 18.813616,11.095227 0 0 0 0.90744,-0.01808 18.813616,11.095227 0 0 0 3.85868,-0.34882 18.813616,11.095227 0 0 0 14.04772,-10.72854 18.813616,11.095227 0 0 0 -0.88522,-3.18276 18.813616,11.095227 0 0 0 -0.005,-0.0088 6.4729948,12.602122 0 0 1 -0.001,0.0155 13.052535,7.7333279 0 0 1 -1.03766,1.00563 8.1472341,6.4813063 88.085044 0 0 -1.93735,-3.38636 8.1472341,6.4813063 88.085044 0 0 -0.35502,-0.32143 8.1472341,6.4813063 88.085044 0 0 -0.40514,-0.35863 v 5.1e-4 a 1.4708945,4.053477 4.6501948 0 1 0.19224,0.41962 1.4708945,4.053477 4.6501948 0 1 0.2005,0.74414 1.4708945,4.053477 4.6501948 0 1 0.0899,2.59415 1.4708945,4.053477 4.6501948 0 1 -0.36639,1.92185 13.052535,7.7333279 0 0 1 -1.23558,0.55035 7.2034916,6.4793543 85.825203 0 0 -2.13424,-3.68504 7.2034916,6.4793543 85.825203 0 0 -0.35553,-0.28474 7.2034916,6.4793543 85.825203 0 0 -0.40463,-0.31678 v 5.2e-4 a 1.4694838,3.5862989 5.4889667 0 1 0.19172,0.37052 1.4694838,3.5862989 5.4889667 0 1 0.20051,0.65836 1.4694838,3.5862989 5.4889667 0 1 0.0904,2.29288 1.4694838,3.5862989 5.4889667 0 1 -0.36897,1.70687 13.052535,7.7333279 0 0 1 -1.68,0.28371 7.2348706,6.4794984 85.990653 0 0 -2.13837,-3.71657 7.2348706,6.4794984 85.990653 0 0 -0.35554,-0.28577 7.2348706,6.4794984 85.990653 0 0 -0.40462,-0.31833 v 5.2e-4 a 1.4695422,3.6018581 5.455664 0 1 0.19172,0.37259 1.4695422,3.6018581 5.455664 0 1 0.2005,0.66042 1.4695422,3.6018581 5.455664 0 1 0.0904,2.30322 1.4695422,3.6018581 5.455664 0 1 -0.19276,1.10277 13.052535,7.7333279 0 0 1 -0.32866,-0.02222 13.052535,7.7333279 0 0 1 -7.05125,-1.449 19.762335,21.819971 0 0 1 0.16847,-2.12494 19.762335,21.819971 0 0 1 2.95382,-8.53746 19.762335,21.819971 0 0 1 2.26808,-3.17138 19.762335,21.819971 0 0 1 0.50384,-0.50385 3.2356834,1.5781886 45.605377 0 1 0.56276,0.46147 3.2356834,1.5781886 45.605377 0 1 1.27279,1.68052 3.2356834,1.5781886 45.605377 0 1 0.23926,0.62012 3.2356834,1.5781886 45.605377 0 1 0.077,0.41134 l 5.2e-4,5.2e-4 a 6.2084234,7.2846229 11.409732 0 0 0.108,-0.54209 6.2084234,7.2846229 11.409732 0 0 0.0915,-0.47956 6.2084234,7.2846229 11.409732 0 0 -0.48163,-3.96668 19.762335,21.819971 0 0 1 1.3162,-0.96893 3.4952992,1.6747314 51.852814 0 1 1.24592,1.02887 3.4952992,1.6747314 51.852814 0 1 1.27279,1.9265 3.4952992,1.6747314 51.852814 0 1 0.23926,0.71055 3.4952992,1.6747314 51.852814 0 1 0.077,0.47181 l 5.2e-4,5.2e-4 a 6.2263932,8.3263843 6.0976268 0 0 0.108,-0.62115 6.2263932,8.3263843 6.0976268 0 0 0.0915,-0.54984 6.2263932,8.3263843 6.0976268 0 0 -0.44545,-4.50825 19.762335,21.819971 0 0 1 1.67587,-0.73536 3.6218116,1.7087097 54.278619 0 1 1.33583,1.14877 3.6218116,1.7087097 54.278619 0 1 1.27331,2.03657 3.6218116,1.7087097 54.278619 0 1 0.23874,0.75137 3.6218116,1.7087097 54.278619 0 1 0.0775,0.4992 6.2296626,8.7981855 5.0922988 0 0 0.10852,-0.6563 6.2296626,8.7981855 5.0922988 0 0 0.0909,-0.58187 6.2296626,8.7981855 5.0922988 0 0 -0.23771,-4.01733 19.762335,21.819971 0 0 1 2.06189,-0.33228 19.407991,15.380279 0 0 0 -19.01538,-12.31242 l 5.2e-4,5.1e-4 a 19.407991,15.380279 0 0 0 -0.0284,0.0021 c -3.49359,-2.87186 -8.15164,-4.49873 -13.02815,-4.49998 z m 16.802587,11.83287 a 2.1585665,2.1585665 0 0 1 2.15853,2.15852 2.1585665,2.1585665 0 0 1 -2.15853,2.15852 2.1585665,2.1585665 0 0 1 -2.15852,-2.15852 2.1585665,2.1585665 0 0 1 2.15852,-2.15852 z m -34.011873,13.72371 a 3.7832204,11.807293 73.859533 0 1 0.0708,0.0021 3.7832204,11.807293 73.859533 0 0 -0.236161,0 3.7832204,11.807293 73.859533 0 1 0.165364,-0.0021 z" /></g></svg>
